<svg width="103" height="35" viewBox="0 0 103 35" fill="none" xmlns="http://www.w3.org/2000/svg">
<g id="Group 1">
<path id="Vector" d="M24.0851 34.1211H18.3177L12.136 21.1226L9.95897 16.5853H11.7298C13.6347 16.5853 15.1253 16.0816 16.1975 15.0742C17.2698 14.0668 17.7978 12.637 17.7978 10.8172C17.7978 8.81597 17.2644 7.27375 16.1975 6.19054C15.1334 5.11004 13.6428 4.56573 11.7298 4.56573H4.99979V34.1211H0V0H11.7298C15.2823 0 18.0185 0.897709 19.9382 2.69313C21.858 4.48855 22.8233 7.0368 22.8341 10.3379C22.8341 13.7662 21.8688 16.4269 19.9382 18.3198C19.1071 19.1287 18.1299 19.7725 17.0586 20.2167L24.0851 34.1211Z" fill="#00A76F"/>
<path id="Vector_2" d="M10.8119 6.76733H7.51392V10.0657H10.8119V6.76733Z" fill="#00A76F"/>
<path id="Vector_3" d="M14.6135 6.76733H11.3155V10.0657H14.6135V6.76733Z" fill="#00A76F"/>
<path id="Vector_4" d="M10.8119 10.5978H7.51392V13.8962H10.8119V10.5978Z" fill="#00A76F"/>
<path id="Vector_5" d="M14.6135 10.5978H11.3155V13.8962H14.6135V10.5978Z" fill="#00A76F"/>
<path id="Vector_6" d="M28.894 8.96898H36.5176V6.52364H28.894V2.6647H36.8628V0.21936H26.0265V15.9435H36.9318L37.2893 13.4981H28.894V8.96898Z" fill="#00A76F"/>
<path id="Vector_7" d="M44.198 0.21936L38.7717 15.9435H41.6798L43.0526 11.9383H48.9785L50.4244 15.9435H53.5355L47.8859 0.21936H44.198ZM43.7187 9.49704C44.7219 6.42208 45.5546 3.88738 45.9404 2.41286C46.306 3.75333 47.0573 5.89808 48.3042 9.49704H43.7187Z" fill="#00A76F"/>
<path id="Vector_8" d="M58.6612 0.21936H55.7125V15.9435H66.2645L66.6178 13.4981H58.6612V0.21936Z" fill="#00A76F"/>
<path id="Vector_9" d="M71.6867 0.21936H68.738V15.9435H71.6867V0.21936Z" fill="#00A76F"/>
<path id="Vector_10" d="M74.0343 2.6647H78.9122V15.9435H81.8691V2.6647H86.7389V0.21936H74.0343V2.6647Z" fill="#00A76F"/>
<path id="Vector_11" d="M99.1429 0.21936C97.8513 2.58753 95.918 6.16618 95.2357 7.71381C94.4762 6.11743 92.6566 2.65658 91.3853 0.21936H88.0386L93.5014 9.83825C93.587 9.9816 93.6293 10.1467 93.6232 10.3135V15.9435H96.5801V10.2891C96.5639 10.1238 96.604 9.95777 96.6938 9.81795L102.246 0.21936H99.1429Z" fill="#00A76F"/>
<path id="Vector_12" d="M34.9376 26.2245H27.3059V20.4442H25.925V33.9667H27.3059V27.4472H34.9376V33.9667H36.3185V20.4442H34.9376V26.2245Z" fill="#353535"/>
<path id="Vector_13" d="M52.4389 20.2493C48.3774 20.2493 46.1922 23.3608 46.1922 27.2035C46.1922 31.0462 48.4099 34.1577 52.2846 34.1577C56.4924 34.1577 58.515 30.8187 58.515 27.1182C58.5272 23.1536 56.1918 20.2493 52.4389 20.2493ZM52.3618 32.9391C49.2709 32.9391 47.6503 30.1728 47.6503 27.1466C47.6503 24.1204 49.0963 21.4598 52.3861 21.4598C55.5176 21.4598 57.0651 24.0838 57.0651 27.1466C57.0651 30.2094 55.6963 32.9391 52.3618 32.9391Z" fill="#353535"/>
<path id="Vector_14" d="M74.8182 32.2688H74.7816C74.2983 30.644 72.17 24.884 70.4601 20.4442H68.3928V33.9667H69.729V28.3733C69.729 26.0539 69.6844 22.9749 69.5869 21.4191H69.6356C70.2489 23.5842 72.828 30.5912 74.0668 33.9667H75.3543C76.9789 29.7057 79.489 23.4298 80.0454 21.4435H80.1104C80.0536 22.8286 80.0292 25.3674 80.0292 27.9427V33.9667H81.3939V20.4442H79.3631C77.6166 24.7784 75.1391 31.1395 74.8182 32.2688Z" fill="#353535"/>
<path id="Vector_15" d="M93.5582 32.7441V27.4675H100.374V26.2448H93.5582V21.6669H100.711V20.4442H92.1935V33.9667H100.845L101.032 32.7441H93.5582Z" fill="#353535"/>
</g>
</svg>
