<svg width="88" height="87" viewBox="0 0 88 87" fill="none" xmlns="http://www.w3.org/2000/svg">
<path id="Vector 12" d="M67.2994 86.0179C66.1957 86.0628 65.2646 85.2045 65.2197 84.1009L64.4878 66.1157C64.4429 65.0121 65.3012 64.081 66.4048 64.0361C67.5085 63.9912 68.4396 64.8494 68.4845 65.9531L69.1351 81.9399L85.1218 81.2893C86.2255 81.2444 87.1566 82.1027 87.2015 83.2063C87.2464 84.31 86.3881 85.2411 85.2845 85.286L67.2994 86.0179ZM72.5 49.5L70.6862 50.3426L72.5 49.5ZM43.9915 30.1315L43.4528 32.0576L43.9915 30.1315ZM48.4855 53.8165L46.8958 52.6029L48.4855 53.8165ZM38.7761 14.8176L37.3054 16.173L38.7761 14.8176ZM3.16733 6.26511C2.21721 6.82844 0.990307 6.51488 0.426986 5.56475C-0.136344 4.61463 0.177223 3.38774 1.12735 2.82441L3.16733 6.26511ZM65.7475 82.664C69.0777 79.0512 71.3277 73.0847 72.2041 66.782C73.0811 60.4749 72.5195 54.289 70.6862 50.3426L74.3138 48.6574C76.5913 53.56 77.1013 60.6063 76.166 67.3329C75.23 74.064 72.7835 80.9327 68.6886 85.3751L65.7475 82.664ZM70.6862 50.3426C65.8666 39.9679 55.6825 35.4781 43.4528 32.0576L44.5302 28.2054C56.8466 31.6501 68.6802 36.5301 74.3138 48.6574L70.6862 50.3426ZM43.4528 32.0576C37.5072 30.3947 31.1689 32.7635 28.0228 38.2127L24.5587 36.2127C28.6664 29.0979 36.9202 26.077 44.5302 28.2054L43.4528 32.0576ZM28.0228 38.2127C25.1138 43.2512 27.4399 49.6694 32.1959 53.5622C34.5171 55.462 37.2082 56.5506 39.7472 56.5255C42.2076 56.5012 44.7339 55.4348 46.8958 52.6029L50.0752 55.0301C47.2087 58.7849 43.5506 60.4881 39.7867 60.5253C36.1015 60.5617 32.5287 59.0035 29.6624 56.6575C24.0434 52.0585 20.3005 43.5881 24.5587 36.2127L28.0228 38.2127ZM46.8958 52.6029C48.2718 50.8004 48.9266 48.1821 48.8741 44.9022C48.8218 41.6439 48.0726 37.9429 46.8775 34.2144C44.4732 26.7136 40.4134 19.5455 37.3054 16.173L40.2467 13.4622C43.8578 17.3805 48.1615 25.1156 50.6866 32.9935C51.9561 36.9543 52.813 41.0615 52.8735 44.8381C52.9337 48.5931 52.2079 52.2364 50.0752 55.0301L46.8958 52.6029ZM37.3054 16.173C33.5404 12.0877 27.3966 8.08222 20.8913 5.89431C14.3416 3.69144 7.87873 3.47174 3.16733 6.26511L1.12735 2.82441C7.2871 -0.827684 15.1259 -0.264942 22.1665 2.103C29.2515 4.48589 35.9865 8.83954 40.2467 13.4622L37.3054 16.173Z" fill="#006845"/>
</svg>
